<mxfile host="app.diagrams.net" agent="Mozilla/5.0 (Windows NT 10.0; Win64; x64) AppleWebKit/537.36 (KHTML, like Gecko) Chrome/137.0.0.0 Safari/537.36" version="27.1.4">
  <diagram name="Seite-1" id="9jgpsllYjkBiMr9jGn8B">
    <mxGraphModel dx="4990" dy="2447" grid="1" gridSize="10" guides="1" tooltips="1" connect="1" arrows="1" fold="1" page="1" pageScale="1" pageWidth="827" pageHeight="1169" math="0" shadow="0">
      <root>
        <mxCell id="0" />
        <mxCell id="1" parent="0" />
        <mxCell id="Iei1TvvrwYdSUah-HN4D-150" style="edgeStyle=orthogonalEdgeStyle;rounded=0;orthogonalLoop=1;jettySize=auto;html=1;entryX=0.5;entryY=0;entryDx=0;entryDy=0;" edge="1" parent="1" source="r9rofmF0vpYyHbrX1Jv8-57" target="Iei1TvvrwYdSUah-HN4D-39">
          <mxGeometry relative="1" as="geometry">
            <Array as="points">
              <mxPoint x="-615" y="160" />
              <mxPoint x="-5" y="160" />
            </Array>
          </mxGeometry>
        </mxCell>
        <mxCell id="r9rofmF0vpYyHbrX1Jv8-57" value="UISettings" style="swimlane;fontStyle=0;childLayout=stackLayout;horizontal=1;startSize=30;horizontalStack=0;resizeParent=1;resizeParentMax=0;resizeLast=0;collapsible=1;marginBottom=0;whiteSpace=wrap;html=1;" parent="1" vertex="1">
          <mxGeometry x="-740" y="190" width="250" height="180" as="geometry">
            <mxRectangle x="-740" y="190" width="100" height="30" as="alternateBounds" />
          </mxGeometry>
        </mxCell>
        <mxCell id="r9rofmF0vpYyHbrX1Jv8-58" value="DarkThemeOption: int" style="text;strokeColor=none;fillColor=none;align=left;verticalAlign=middle;spacingLeft=4;spacingRight=4;overflow=hidden;points=[[0,0.5],[1,0.5]];portConstraint=eastwest;rotatable=0;whiteSpace=wrap;html=1;" parent="r9rofmF0vpYyHbrX1Jv8-57" vertex="1">
          <mxGeometry y="30" width="250" height="30" as="geometry" />
        </mxCell>
        <mxCell id="r9rofmF0vpYyHbrX1Jv8-59" value="ColorThemeOption: DarkTheme" style="text;strokeColor=none;fillColor=none;align=left;verticalAlign=middle;spacingLeft=4;spacingRight=4;overflow=hidden;points=[[0,0.5],[1,0.5]];portConstraint=eastwest;rotatable=0;whiteSpace=wrap;html=1;" parent="r9rofmF0vpYyHbrX1Jv8-57" vertex="1">
          <mxGeometry y="60" width="250" height="30" as="geometry" />
        </mxCell>
        <mxCell id="r9rofmF0vpYyHbrX1Jv8-60" value="SelectedOption: int" style="text;strokeColor=none;fillColor=none;align=left;verticalAlign=middle;spacingLeft=4;spacingRight=4;overflow=hidden;points=[[0,0.5],[1,0.5]];portConstraint=eastwest;rotatable=0;whiteSpace=wrap;html=1;" parent="r9rofmF0vpYyHbrX1Jv8-57" vertex="1">
          <mxGeometry y="90" width="250" height="30" as="geometry" />
        </mxCell>
        <mxCell id="Iei1TvvrwYdSUah-HN4D-3" value="SelectedTheme: SelectedOption" style="text;strokeColor=none;fillColor=none;align=left;verticalAlign=middle;spacingLeft=4;spacingRight=4;overflow=hidden;points=[[0,0.5],[1,0.5]];portConstraint=eastwest;rotatable=0;whiteSpace=wrap;html=1;" vertex="1" parent="r9rofmF0vpYyHbrX1Jv8-57">
          <mxGeometry y="120" width="250" height="30" as="geometry" />
        </mxCell>
        <mxCell id="Iei1TvvrwYdSUah-HN4D-1" value="OnPropertyChanged(string propertyName)" style="text;strokeColor=#313131;fillColor=none;align=left;verticalAlign=middle;spacingLeft=4;spacingRight=4;overflow=hidden;points=[[0,0.5],[1,0.5]];portConstraint=eastwest;rotatable=0;whiteSpace=wrap;html=1;" vertex="1" parent="r9rofmF0vpYyHbrX1Jv8-57">
          <mxGeometry y="150" width="250" height="30" as="geometry" />
        </mxCell>
        <mxCell id="Iei1TvvrwYdSUah-HN4D-147" style="edgeStyle=orthogonalEdgeStyle;rounded=0;orthogonalLoop=1;jettySize=auto;html=1;entryX=0.5;entryY=0;entryDx=0;entryDy=0;" edge="1" parent="1" source="Iei1TvvrwYdSUah-HN4D-4" target="Iei1TvvrwYdSUah-HN4D-52">
          <mxGeometry relative="1" as="geometry">
            <mxPoint x="560" y="180" as="targetPoint" />
            <Array as="points">
              <mxPoint x="-310" y="110" />
              <mxPoint x="555" y="110" />
            </Array>
          </mxGeometry>
        </mxCell>
        <mxCell id="Iei1TvvrwYdSUah-HN4D-149" style="edgeStyle=orthogonalEdgeStyle;rounded=0;orthogonalLoop=1;jettySize=auto;html=1;entryX=0.5;entryY=0;entryDx=0;entryDy=0;" edge="1" parent="1" source="Iei1TvvrwYdSUah-HN4D-4" target="Iei1TvvrwYdSUah-HN4D-91">
          <mxGeometry relative="1" as="geometry">
            <mxPoint x="1090" y="50" as="targetPoint" />
            <Array as="points">
              <mxPoint x="-310" y="90" />
              <mxPoint x="1395" y="90" />
            </Array>
          </mxGeometry>
        </mxCell>
        <mxCell id="Iei1TvvrwYdSUah-HN4D-4" value="Artikel" style="swimlane;fontStyle=0;childLayout=stackLayout;horizontal=1;startSize=30;horizontalStack=0;resizeParent=1;resizeParentMax=0;resizeLast=0;collapsible=1;marginBottom=0;whiteSpace=wrap;html=1;" vertex="1" parent="1">
          <mxGeometry x="-460" y="190" width="300" height="390" as="geometry">
            <mxRectangle x="-740" y="190" width="100" height="30" as="alternateBounds" />
          </mxGeometry>
        </mxCell>
        <mxCell id="Iei1TvvrwYdSUah-HN4D-5" value="_db: DB" style="text;strokeColor=none;fillColor=none;align=left;verticalAlign=middle;spacingLeft=4;spacingRight=4;overflow=hidden;points=[[0,0.5],[1,0.5]];portConstraint=eastwest;rotatable=0;whiteSpace=wrap;html=1;" vertex="1" parent="Iei1TvvrwYdSUah-HN4D-4">
          <mxGeometry y="30" width="300" height="30" as="geometry" />
        </mxCell>
        <mxCell id="Iei1TvvrwYdSUah-HN4D-6" value="ID: string" style="text;strokeColor=none;fillColor=none;align=left;verticalAlign=middle;spacingLeft=4;spacingRight=4;overflow=hidden;points=[[0,0.5],[1,0.5]];portConstraint=eastwest;rotatable=0;whiteSpace=wrap;html=1;" vertex="1" parent="Iei1TvvrwYdSUah-HN4D-4">
          <mxGeometry y="60" width="300" height="30" as="geometry" />
        </mxCell>
        <mxCell id="Iei1TvvrwYdSUah-HN4D-7" value="name: string" style="text;strokeColor=none;fillColor=none;align=left;verticalAlign=middle;spacingLeft=4;spacingRight=4;overflow=hidden;points=[[0,0.5],[1,0.5]];portConstraint=eastwest;rotatable=0;whiteSpace=wrap;html=1;" vertex="1" parent="Iei1TvvrwYdSUah-HN4D-4">
          <mxGeometry y="90" width="300" height="30" as="geometry" />
        </mxCell>
        <mxCell id="Iei1TvvrwYdSUah-HN4D-10" value="description: string" style="text;strokeColor=none;fillColor=none;align=left;verticalAlign=middle;spacingLeft=4;spacingRight=4;overflow=hidden;points=[[0,0.5],[1,0.5]];portConstraint=eastwest;rotatable=0;whiteSpace=wrap;html=1;" vertex="1" parent="Iei1TvvrwYdSUah-HN4D-4">
          <mxGeometry y="120" width="300" height="30" as="geometry" />
        </mxCell>
        <mxCell id="Iei1TvvrwYdSUah-HN4D-11" value="unit: string" style="text;strokeColor=none;fillColor=none;align=left;verticalAlign=middle;spacingLeft=4;spacingRight=4;overflow=hidden;points=[[0,0.5],[1,0.5]];portConstraint=eastwest;rotatable=0;whiteSpace=wrap;html=1;" vertex="1" parent="Iei1TvvrwYdSUah-HN4D-4">
          <mxGeometry y="150" width="300" height="30" as="geometry" />
        </mxCell>
        <mxCell id="Iei1TvvrwYdSUah-HN4D-8" value="StockQuantity: int" style="text;strokeColor=none;fillColor=none;align=left;verticalAlign=middle;spacingLeft=4;spacingRight=4;overflow=hidden;points=[[0,0.5],[1,0.5]];portConstraint=eastwest;rotatable=0;whiteSpace=wrap;html=1;" vertex="1" parent="Iei1TvvrwYdSUah-HN4D-4">
          <mxGeometry y="180" width="300" height="30" as="geometry" />
        </mxCell>
        <mxCell id="Iei1TvvrwYdSUah-HN4D-12" value="timestamp: DateTime" style="text;strokeColor=none;fillColor=none;align=left;verticalAlign=middle;spacingLeft=4;spacingRight=4;overflow=hidden;points=[[0,0.5],[1,0.5]];portConstraint=eastwest;rotatable=0;whiteSpace=wrap;html=1;" vertex="1" parent="Iei1TvvrwYdSUah-HN4D-4">
          <mxGeometry y="210" width="300" height="30" as="geometry" />
        </mxCell>
        <mxCell id="Iei1TvvrwYdSUah-HN4D-9" value="Artikel(string name, string description, string unit, int StockQuantity, bool insert = true)" style="text;strokeColor=#313131;fillColor=none;align=left;verticalAlign=middle;spacingLeft=4;spacingRight=4;overflow=hidden;points=[[0,0.5],[1,0.5]];portConstraint=eastwest;rotatable=0;whiteSpace=wrap;html=1;" vertex="1" parent="Iei1TvvrwYdSUah-HN4D-4">
          <mxGeometry y="240" width="300" height="30" as="geometry" />
        </mxCell>
        <mxCell id="Iei1TvvrwYdSUah-HN4D-16" value="Artikel(string name, string description, int StockQuantity, string CreationDate, bool insert = true)" style="text;strokeColor=none;fillColor=none;align=left;verticalAlign=middle;spacingLeft=4;spacingRight=4;overflow=hidden;points=[[0,0.5],[1,0.5]];portConstraint=eastwest;rotatable=0;whiteSpace=wrap;html=1;" vertex="1" parent="Iei1TvvrwYdSUah-HN4D-4">
          <mxGeometry y="270" width="300" height="30" as="geometry" />
        </mxCell>
        <mxCell id="Iei1TvvrwYdSUah-HN4D-18" value="Update(Artikel artikel)" style="text;strokeColor=none;fillColor=none;align=left;verticalAlign=middle;spacingLeft=4;spacingRight=4;overflow=hidden;points=[[0,0.5],[1,0.5]];portConstraint=eastwest;rotatable=0;whiteSpace=wrap;html=1;" vertex="1" parent="Iei1TvvrwYdSUah-HN4D-4">
          <mxGeometry y="300" width="300" height="30" as="geometry" />
        </mxCell>
        <mxCell id="Iei1TvvrwYdSUah-HN4D-17" value="Update(string name, string description, int StockQuantity, string unit)" style="text;strokeColor=none;fillColor=none;align=left;verticalAlign=middle;spacingLeft=4;spacingRight=4;overflow=hidden;points=[[0,0.5],[1,0.5]];portConstraint=eastwest;rotatable=0;whiteSpace=wrap;html=1;" vertex="1" parent="Iei1TvvrwYdSUah-HN4D-4">
          <mxGeometry y="330" width="300" height="30" as="geometry" />
        </mxCell>
        <mxCell id="Iei1TvvrwYdSUah-HN4D-19" value="- UpdateArtikel(string name, string descriptions, int StockQuantity, string unit)" style="text;strokeColor=none;fillColor=none;align=left;verticalAlign=middle;spacingLeft=4;spacingRight=4;overflow=hidden;points=[[0,0.5],[1,0.5]];portConstraint=eastwest;rotatable=0;whiteSpace=wrap;html=1;" vertex="1" parent="Iei1TvvrwYdSUah-HN4D-4">
          <mxGeometry y="360" width="300" height="30" as="geometry" />
        </mxCell>
        <mxCell id="Iei1TvvrwYdSUah-HN4D-20" value="Crypt" style="swimlane;fontStyle=0;childLayout=stackLayout;horizontal=1;startSize=30;horizontalStack=0;resizeParent=1;resizeParentMax=0;resizeLast=0;collapsible=1;marginBottom=0;whiteSpace=wrap;html=1;" vertex="1" parent="1">
          <mxGeometry x="150" y="190" width="250" height="360" as="geometry">
            <mxRectangle x="-740" y="190" width="100" height="30" as="alternateBounds" />
          </mxGeometry>
        </mxCell>
        <mxCell id="Iei1TvvrwYdSUah-HN4D-21" value="- KeyName: string" style="text;strokeColor=none;fillColor=none;align=left;verticalAlign=middle;spacingLeft=4;spacingRight=4;overflow=hidden;points=[[0,0.5],[1,0.5]];portConstraint=eastwest;rotatable=0;whiteSpace=wrap;html=1;" vertex="1" parent="Iei1TvvrwYdSUah-HN4D-20">
          <mxGeometry y="30" width="250" height="30" as="geometry" />
        </mxCell>
        <mxCell id="Iei1TvvrwYdSUah-HN4D-22" value="- SaltSize: int" style="text;strokeColor=none;fillColor=none;align=left;verticalAlign=middle;spacingLeft=4;spacingRight=4;overflow=hidden;points=[[0,0.5],[1,0.5]];portConstraint=eastwest;rotatable=0;whiteSpace=wrap;html=1;" vertex="1" parent="Iei1TvvrwYdSUah-HN4D-20">
          <mxGeometry y="60" width="250" height="30" as="geometry" />
        </mxCell>
        <mxCell id="Iei1TvvrwYdSUah-HN4D-23" value="- KeySize: int" style="text;strokeColor=none;fillColor=none;align=left;verticalAlign=middle;spacingLeft=4;spacingRight=4;overflow=hidden;points=[[0,0.5],[1,0.5]];portConstraint=eastwest;rotatable=0;whiteSpace=wrap;html=1;" vertex="1" parent="Iei1TvvrwYdSUah-HN4D-20">
          <mxGeometry y="90" width="250" height="30" as="geometry" />
        </mxCell>
        <mxCell id="Iei1TvvrwYdSUah-HN4D-24" value="- _key: byte[]" style="text;strokeColor=none;fillColor=none;align=left;verticalAlign=middle;spacingLeft=4;spacingRight=4;overflow=hidden;points=[[0,0.5],[1,0.5]];portConstraint=eastwest;rotatable=0;whiteSpace=wrap;html=1;" vertex="1" parent="Iei1TvvrwYdSUah-HN4D-20">
          <mxGeometry y="120" width="250" height="30" as="geometry" />
        </mxCell>
        <mxCell id="Iei1TvvrwYdSUah-HN4D-26" value="- _keyIdentifier: string" style="text;strokeColor=none;fillColor=none;align=left;verticalAlign=middle;spacingLeft=4;spacingRight=4;overflow=hidden;points=[[0,0.5],[1,0.5]];portConstraint=eastwest;rotatable=0;whiteSpace=wrap;html=1;" vertex="1" parent="Iei1TvvrwYdSUah-HN4D-20">
          <mxGeometry y="150" width="250" height="30" as="geometry" />
        </mxCell>
        <mxCell id="Iei1TvvrwYdSUah-HN4D-25" value="Crypt(sting password, string keyIdentifier)" style="text;strokeColor=#313131;fillColor=none;align=left;verticalAlign=middle;spacingLeft=4;spacingRight=4;overflow=hidden;points=[[0,0.5],[1,0.5]];portConstraint=eastwest;rotatable=0;whiteSpace=wrap;html=1;" vertex="1" parent="Iei1TvvrwYdSUah-HN4D-20">
          <mxGeometry y="180" width="250" height="30" as="geometry" />
        </mxCell>
        <mxCell id="Iei1TvvrwYdSUah-HN4D-34" value="- RetrieveOrGenerateKey(string password)" style="text;strokeColor=#313131;fillColor=none;align=left;verticalAlign=middle;spacingLeft=4;spacingRight=4;overflow=hidden;points=[[0,0.5],[1,0.5]];portConstraint=eastwest;rotatable=0;whiteSpace=wrap;html=1;" vertex="1" parent="Iei1TvvrwYdSUah-HN4D-20">
          <mxGeometry y="210" width="250" height="30" as="geometry" />
        </mxCell>
        <mxCell id="Iei1TvvrwYdSUah-HN4D-35" value="- GenerateKey(string password)" style="text;strokeColor=#313131;fillColor=none;align=left;verticalAlign=middle;spacingLeft=4;spacingRight=4;overflow=hidden;points=[[0,0.5],[1,0.5]];portConstraint=eastwest;rotatable=0;whiteSpace=wrap;html=1;" vertex="1" parent="Iei1TvvrwYdSUah-HN4D-20">
          <mxGeometry y="240" width="250" height="30" as="geometry" />
        </mxCell>
        <mxCell id="Iei1TvvrwYdSUah-HN4D-37" value="- RetrieveKeyFromCredentialManager()" style="text;strokeColor=#313131;fillColor=none;align=left;verticalAlign=middle;spacingLeft=4;spacingRight=4;overflow=hidden;points=[[0,0.5],[1,0.5]];portConstraint=eastwest;rotatable=0;whiteSpace=wrap;html=1;" vertex="1" parent="Iei1TvvrwYdSUah-HN4D-20">
          <mxGeometry y="270" width="250" height="30" as="geometry" />
        </mxCell>
        <mxCell id="Iei1TvvrwYdSUah-HN4D-38" value="Encrypt(string plainText)" style="text;strokeColor=#313131;fillColor=none;align=left;verticalAlign=middle;spacingLeft=4;spacingRight=4;overflow=hidden;points=[[0,0.5],[1,0.5]];portConstraint=eastwest;rotatable=0;whiteSpace=wrap;html=1;" vertex="1" parent="Iei1TvvrwYdSUah-HN4D-20">
          <mxGeometry y="300" width="250" height="30" as="geometry" />
        </mxCell>
        <mxCell id="Iei1TvvrwYdSUah-HN4D-36" value="Dycript(byte[] cipherText)" style="text;strokeColor=#313131;fillColor=none;align=left;verticalAlign=middle;spacingLeft=4;spacingRight=4;overflow=hidden;points=[[0,0.5],[1,0.5]];portConstraint=eastwest;rotatable=0;whiteSpace=wrap;html=1;" vertex="1" parent="Iei1TvvrwYdSUah-HN4D-20">
          <mxGeometry y="330" width="250" height="30" as="geometry" />
        </mxCell>
        <mxCell id="Iei1TvvrwYdSUah-HN4D-39" value="ThemeManager" style="swimlane;fontStyle=0;childLayout=stackLayout;horizontal=1;startSize=30;horizontalStack=0;resizeParent=1;resizeParentMax=0;resizeLast=0;collapsible=1;marginBottom=0;whiteSpace=wrap;html=1;" vertex="1" parent="1">
          <mxGeometry x="-130" y="190" width="250" height="120" as="geometry">
            <mxRectangle x="-740" y="190" width="100" height="30" as="alternateBounds" />
          </mxGeometry>
        </mxCell>
        <mxCell id="Iei1TvvrwYdSUah-HN4D-40" value="- themeFile: string" style="text;strokeColor=none;fillColor=none;align=left;verticalAlign=middle;spacingLeft=4;spacingRight=4;overflow=hidden;points=[[0,0.5],[1,0.5]];portConstraint=eastwest;rotatable=0;whiteSpace=wrap;html=1;" vertex="1" parent="Iei1TvvrwYdSUah-HN4D-39">
          <mxGeometry y="30" width="250" height="30" as="geometry" />
        </mxCell>
        <mxCell id="Iei1TvvrwYdSUah-HN4D-41" value="- newTheme: ResourceDictionary" style="text;strokeColor=none;fillColor=none;align=left;verticalAlign=middle;spacingLeft=4;spacingRight=4;overflow=hidden;points=[[0,0.5],[1,0.5]];portConstraint=eastwest;rotatable=0;whiteSpace=wrap;html=1;" vertex="1" parent="Iei1TvvrwYdSUah-HN4D-39">
          <mxGeometry y="60" width="250" height="30" as="geometry" />
        </mxCell>
        <mxCell id="Iei1TvvrwYdSUah-HN4D-45" value="IsSystemInDarkMode()" style="text;strokeColor=#313131;fillColor=none;align=left;verticalAlign=middle;spacingLeft=4;spacingRight=4;overflow=hidden;points=[[0,0.5],[1,0.5]];portConstraint=eastwest;rotatable=0;whiteSpace=wrap;html=1;" vertex="1" parent="Iei1TvvrwYdSUah-HN4D-39">
          <mxGeometry y="90" width="250" height="30" as="geometry" />
        </mxCell>
        <mxCell id="Iei1TvvrwYdSUah-HN4D-52" value="DB" style="swimlane;fontStyle=0;childLayout=stackLayout;horizontal=1;startSize=30;horizontalStack=0;resizeParent=1;resizeParentMax=0;resizeLast=0;collapsible=1;marginBottom=0;whiteSpace=wrap;html=1;" vertex="1" parent="1">
          <mxGeometry x="430" y="190" width="250" height="360" as="geometry">
            <mxRectangle x="-740" y="190" width="100" height="30" as="alternateBounds" />
          </mxGeometry>
        </mxCell>
        <mxCell id="Iei1TvvrwYdSUah-HN4D-53" value="- instance: DB" style="text;strokeColor=none;fillColor=none;align=left;verticalAlign=middle;spacingLeft=4;spacingRight=4;overflow=hidden;points=[[0,0.5],[1,0.5]];portConstraint=eastwest;rotatable=0;whiteSpace=wrap;html=1;" vertex="1" parent="Iei1TvvrwYdSUah-HN4D-52">
          <mxGeometry y="30" width="250" height="30" as="geometry" />
        </mxCell>
        <mxCell id="Iei1TvvrwYdSUah-HN4D-54" value="- dbPath: string" style="text;strokeColor=none;fillColor=none;align=left;verticalAlign=middle;spacingLeft=4;spacingRight=4;overflow=hidden;points=[[0,0.5],[1,0.5]];portConstraint=eastwest;rotatable=0;whiteSpace=wrap;html=1;" vertex="1" parent="Iei1TvvrwYdSUah-HN4D-52">
          <mxGeometry y="60" width="250" height="30" as="geometry" />
        </mxCell>
        <mxCell id="Iei1TvvrwYdSUah-HN4D-55" value="- fullpath: string" style="text;strokeColor=none;fillColor=none;align=left;verticalAlign=middle;spacingLeft=4;spacingRight=4;overflow=hidden;points=[[0,0.5],[1,0.5]];portConstraint=eastwest;rotatable=0;whiteSpace=wrap;html=1;" vertex="1" parent="Iei1TvvrwYdSUah-HN4D-52">
          <mxGeometry y="90" width="250" height="30" as="geometry" />
        </mxCell>
        <mxCell id="Iei1TvvrwYdSUah-HN4D-56" value="- connectionString: string" style="text;strokeColor=none;fillColor=none;align=left;verticalAlign=middle;spacingLeft=4;spacingRight=4;overflow=hidden;points=[[0,0.5],[1,0.5]];portConstraint=eastwest;rotatable=0;whiteSpace=wrap;html=1;" vertex="1" parent="Iei1TvvrwYdSUah-HN4D-52">
          <mxGeometry y="120" width="250" height="30" as="geometry" />
        </mxCell>
        <mxCell id="Iei1TvvrwYdSUah-HN4D-57" value="- conn: SQLiteConnection" style="text;strokeColor=none;fillColor=none;align=left;verticalAlign=middle;spacingLeft=4;spacingRight=4;overflow=hidden;points=[[0,0.5],[1,0.5]];portConstraint=eastwest;rotatable=0;whiteSpace=wrap;html=1;" vertex="1" parent="Iei1TvvrwYdSUah-HN4D-52">
          <mxGeometry y="150" width="250" height="30" as="geometry" />
        </mxCell>
        <mxCell id="Iei1TvvrwYdSUah-HN4D-64" value="Instance: DB" style="text;strokeColor=none;fillColor=none;align=left;verticalAlign=middle;spacingLeft=4;spacingRight=4;overflow=hidden;points=[[0,0.5],[1,0.5]];portConstraint=eastwest;rotatable=0;whiteSpace=wrap;html=1;" vertex="1" parent="Iei1TvvrwYdSUah-HN4D-52">
          <mxGeometry y="180" width="250" height="30" as="geometry" />
        </mxCell>
        <mxCell id="Iei1TvvrwYdSUah-HN4D-58" value="DB()" style="text;strokeColor=#313131;fillColor=none;align=left;verticalAlign=middle;spacingLeft=4;spacingRight=4;overflow=hidden;points=[[0,0.5],[1,0.5]];portConstraint=eastwest;rotatable=0;whiteSpace=wrap;html=1;" vertex="1" parent="Iei1TvvrwYdSUah-HN4D-52">
          <mxGeometry y="210" width="250" height="30" as="geometry" />
        </mxCell>
        <mxCell id="Iei1TvvrwYdSUah-HN4D-59" value="Execute(string query, params string[] parameters)" style="text;strokeColor=#313131;fillColor=none;align=left;verticalAlign=middle;spacingLeft=4;spacingRight=4;overflow=hidden;points=[[0,0.5],[1,0.5]];portConstraint=eastwest;rotatable=0;whiteSpace=wrap;html=1;" vertex="1" parent="Iei1TvvrwYdSUah-HN4D-52">
          <mxGeometry y="240" width="250" height="30" as="geometry" />
        </mxCell>
        <mxCell id="Iei1TvvrwYdSUah-HN4D-60" value="TableExists(string tableName)" style="text;strokeColor=#313131;fillColor=none;align=left;verticalAlign=middle;spacingLeft=4;spacingRight=4;overflow=hidden;points=[[0,0.5],[1,0.5]];portConstraint=eastwest;rotatable=0;whiteSpace=wrap;html=1;" vertex="1" parent="Iei1TvvrwYdSUah-HN4D-52">
          <mxGeometry y="270" width="250" height="30" as="geometry" />
        </mxCell>
        <mxCell id="Iei1TvvrwYdSUah-HN4D-61" value="Get(string query, params string[] parameters)" style="text;strokeColor=#313131;fillColor=none;align=left;verticalAlign=middle;spacingLeft=4;spacingRight=4;overflow=hidden;points=[[0,0.5],[1,0.5]];portConstraint=eastwest;rotatable=0;whiteSpace=wrap;html=1;" vertex="1" parent="Iei1TvvrwYdSUah-HN4D-52">
          <mxGeometry y="300" width="250" height="30" as="geometry" />
        </mxCell>
        <mxCell id="Iei1TvvrwYdSUah-HN4D-66" value="Dispose()" style="text;strokeColor=#313131;fillColor=none;align=left;verticalAlign=middle;spacingLeft=4;spacingRight=4;overflow=hidden;points=[[0,0.5],[1,0.5]];portConstraint=eastwest;rotatable=0;whiteSpace=wrap;html=1;" vertex="1" parent="Iei1TvvrwYdSUah-HN4D-52">
          <mxGeometry y="330" width="250" height="30" as="geometry" />
        </mxCell>
        <mxCell id="Iei1TvvrwYdSUah-HN4D-145" style="edgeStyle=orthogonalEdgeStyle;rounded=0;orthogonalLoop=1;jettySize=auto;html=1;entryX=0.355;entryY=0.006;entryDx=0;entryDy=0;entryPerimeter=0;" edge="1" parent="1" source="Iei1TvvrwYdSUah-HN4D-67" target="Iei1TvvrwYdSUah-HN4D-80">
          <mxGeometry relative="1" as="geometry">
            <Array as="points">
              <mxPoint x="835" y="160" />
              <mxPoint x="1080" y="160" />
            </Array>
          </mxGeometry>
        </mxCell>
        <mxCell id="Iei1TvvrwYdSUah-HN4D-67" value="AppDataSave_service" style="swimlane;fontStyle=0;childLayout=stackLayout;horizontal=1;startSize=30;horizontalStack=0;resizeParent=1;resizeParentMax=0;resizeLast=0;collapsible=1;marginBottom=0;whiteSpace=wrap;html=1;" vertex="1" parent="1">
          <mxGeometry x="710" y="190" width="250" height="180" as="geometry">
            <mxRectangle x="-740" y="190" width="100" height="30" as="alternateBounds" />
          </mxGeometry>
        </mxCell>
        <mxCell id="Iei1TvvrwYdSUah-HN4D-68" value="path: string" style="text;strokeColor=none;fillColor=none;align=left;verticalAlign=middle;spacingLeft=4;spacingRight=4;overflow=hidden;points=[[0,0.5],[1,0.5]];portConstraint=eastwest;rotatable=0;whiteSpace=wrap;html=1;" vertex="1" parent="Iei1TvvrwYdSUah-HN4D-67">
          <mxGeometry y="30" width="250" height="30" as="geometry" />
        </mxCell>
        <mxCell id="Iei1TvvrwYdSUah-HN4D-74" value="&lt;span style=&quot;text-align: center;&quot;&gt;AppDataSave_service()&lt;/span&gt;" style="text;strokeColor=#313131;fillColor=none;align=left;verticalAlign=middle;spacingLeft=4;spacingRight=4;overflow=hidden;points=[[0,0.5],[1,0.5]];portConstraint=eastwest;rotatable=0;whiteSpace=wrap;html=1;" vertex="1" parent="Iei1TvvrwYdSUah-HN4D-67">
          <mxGeometry y="60" width="250" height="30" as="geometry" />
        </mxCell>
        <mxCell id="Iei1TvvrwYdSUah-HN4D-75" value="SaveUserLoginData(object obj)" style="text;strokeColor=#313131;fillColor=none;align=left;verticalAlign=middle;spacingLeft=4;spacingRight=4;overflow=hidden;points=[[0,0.5],[1,0.5]];portConstraint=eastwest;rotatable=0;whiteSpace=wrap;html=1;" vertex="1" parent="Iei1TvvrwYdSUah-HN4D-67">
          <mxGeometry y="90" width="250" height="30" as="geometry" />
        </mxCell>
        <mxCell id="Iei1TvvrwYdSUah-HN4D-76" value="LoadUserLoginData()" style="text;strokeColor=#313131;fillColor=none;align=left;verticalAlign=middle;spacingLeft=4;spacingRight=4;overflow=hidden;points=[[0,0.5],[1,0.5]];portConstraint=eastwest;rotatable=0;whiteSpace=wrap;html=1;" vertex="1" parent="Iei1TvvrwYdSUah-HN4D-67">
          <mxGeometry y="120" width="250" height="30" as="geometry" />
        </mxCell>
        <mxCell id="Iei1TvvrwYdSUah-HN4D-79" value="DeleteUserLoginData()" style="text;strokeColor=#313131;fillColor=none;align=left;verticalAlign=middle;spacingLeft=4;spacingRight=4;overflow=hidden;points=[[0,0.5],[1,0.5]];portConstraint=eastwest;rotatable=0;whiteSpace=wrap;html=1;" vertex="1" parent="Iei1TvvrwYdSUah-HN4D-67">
          <mxGeometry y="150" width="250" height="30" as="geometry" />
        </mxCell>
        <mxCell id="Iei1TvvrwYdSUah-HN4D-144" style="edgeStyle=orthogonalEdgeStyle;rounded=0;orthogonalLoop=1;jettySize=auto;html=1;entryX=0.5;entryY=0;entryDx=0;entryDy=0;" edge="1" parent="1" source="Iei1TvvrwYdSUah-HN4D-80" target="Iei1TvvrwYdSUah-HN4D-52">
          <mxGeometry relative="1" as="geometry">
            <Array as="points">
              <mxPoint x="1116" y="110" />
              <mxPoint x="555" y="110" />
            </Array>
          </mxGeometry>
        </mxCell>
        <mxCell id="Iei1TvvrwYdSUah-HN4D-80" value="UserDataLogin" style="swimlane;fontStyle=0;childLayout=stackLayout;horizontal=1;startSize=30;horizontalStack=0;resizeParent=1;resizeParentMax=0;resizeLast=0;collapsible=1;marginBottom=0;whiteSpace=wrap;html=1;" vertex="1" parent="1">
          <mxGeometry x="991" y="190" width="250" height="270" as="geometry">
            <mxRectangle x="-740" y="190" width="100" height="30" as="alternateBounds" />
          </mxGeometry>
        </mxCell>
        <mxCell id="Iei1TvvrwYdSUah-HN4D-81" value="Email: string" style="text;strokeColor=none;fillColor=none;align=left;verticalAlign=middle;spacingLeft=4;spacingRight=4;overflow=hidden;points=[[0,0.5],[1,0.5]];portConstraint=eastwest;rotatable=0;whiteSpace=wrap;html=1;" vertex="1" parent="Iei1TvvrwYdSUah-HN4D-80">
          <mxGeometry y="30" width="250" height="30" as="geometry" />
        </mxCell>
        <mxCell id="Iei1TvvrwYdSUah-HN4D-86" value="&lt;span style=&quot;text-align: center;&quot;&gt;PasswordHash: string&lt;/span&gt;" style="text;strokeColor=none;fillColor=none;align=left;verticalAlign=middle;spacingLeft=4;spacingRight=4;overflow=hidden;points=[[0,0.5],[1,0.5]];portConstraint=eastwest;rotatable=0;whiteSpace=wrap;html=1;" vertex="1" parent="Iei1TvvrwYdSUah-HN4D-80">
          <mxGeometry y="60" width="250" height="30" as="geometry" />
        </mxCell>
        <mxCell id="Iei1TvvrwYdSUah-HN4D-83" value="UserDataLogin(string Email, string Password)" style="text;strokeColor=#313131;fillColor=none;align=left;verticalAlign=middle;spacingLeft=4;spacingRight=4;overflow=hidden;points=[[0,0.5],[1,0.5]];portConstraint=eastwest;rotatable=0;whiteSpace=wrap;html=1;" vertex="1" parent="Iei1TvvrwYdSUah-HN4D-80">
          <mxGeometry y="90" width="250" height="30" as="geometry" />
        </mxCell>
        <mxCell id="Iei1TvvrwYdSUah-HN4D-84" value="UserDataLogin(string email, string password, bool hashPassword)" style="text;strokeColor=#313131;fillColor=none;align=left;verticalAlign=middle;spacingLeft=4;spacingRight=4;overflow=hidden;points=[[0,0.5],[1,0.5]];portConstraint=eastwest;rotatable=0;whiteSpace=wrap;html=1;" vertex="1" parent="Iei1TvvrwYdSUah-HN4D-80">
          <mxGeometry y="120" width="250" height="30" as="geometry" />
        </mxCell>
        <mxCell id="Iei1TvvrwYdSUah-HN4D-85" value="UserDataLogin(string email)" style="text;strokeColor=#313131;fillColor=none;align=left;verticalAlign=middle;spacingLeft=4;spacingRight=4;overflow=hidden;points=[[0,0.5],[1,0.5]];portConstraint=eastwest;rotatable=0;whiteSpace=wrap;html=1;" vertex="1" parent="Iei1TvvrwYdSUah-HN4D-80">
          <mxGeometry y="150" width="250" height="30" as="geometry" />
        </mxCell>
        <mxCell id="Iei1TvvrwYdSUah-HN4D-88" value="SetPassword(string password)" style="text;strokeColor=#313131;fillColor=none;align=left;verticalAlign=middle;spacingLeft=4;spacingRight=4;overflow=hidden;points=[[0,0.5],[1,0.5]];portConstraint=eastwest;rotatable=0;whiteSpace=wrap;html=1;" vertex="1" parent="Iei1TvvrwYdSUah-HN4D-80">
          <mxGeometry y="180" width="250" height="30" as="geometry" />
        </mxCell>
        <mxCell id="Iei1TvvrwYdSUah-HN4D-89" value="SetPassword(string password)" style="text;strokeColor=#313131;fillColor=none;align=left;verticalAlign=middle;spacingLeft=4;spacingRight=4;overflow=hidden;points=[[0,0.5],[1,0.5]];portConstraint=eastwest;rotatable=0;whiteSpace=wrap;html=1;" vertex="1" parent="Iei1TvvrwYdSUah-HN4D-80">
          <mxGeometry y="210" width="250" height="30" as="geometry" />
        </mxCell>
        <mxCell id="Iei1TvvrwYdSUah-HN4D-90" value="HashPassword(string password)" style="text;strokeColor=#313131;fillColor=none;align=left;verticalAlign=middle;spacingLeft=4;spacingRight=4;overflow=hidden;points=[[0,0.5],[1,0.5]];portConstraint=eastwest;rotatable=0;whiteSpace=wrap;html=1;" vertex="1" parent="Iei1TvvrwYdSUah-HN4D-80">
          <mxGeometry y="240" width="250" height="30" as="geometry" />
        </mxCell>
        <mxCell id="Iei1TvvrwYdSUah-HN4D-154" style="edgeStyle=orthogonalEdgeStyle;rounded=0;orthogonalLoop=1;jettySize=auto;html=1;entryX=0.599;entryY=0.002;entryDx=0;entryDy=0;entryPerimeter=0;" edge="1" parent="1" source="Iei1TvvrwYdSUah-HN4D-91" target="Iei1TvvrwYdSUah-HN4D-123">
          <mxGeometry relative="1" as="geometry">
            <mxPoint x="2812.9627821180557" y="180" as="targetPoint" />
            <Array as="points">
              <mxPoint x="1410" y="40" />
              <mxPoint x="2840" y="40" />
            </Array>
          </mxGeometry>
        </mxCell>
        <mxCell id="Iei1TvvrwYdSUah-HN4D-91" value="ArtikelListItem" style="swimlane;fontStyle=0;childLayout=stackLayout;horizontal=1;startSize=30;horizontalStack=0;resizeParent=1;resizeParentMax=0;resizeLast=0;collapsible=1;marginBottom=0;whiteSpace=wrap;html=1;" vertex="1" parent="1">
          <mxGeometry x="1270" y="190" width="250" height="180" as="geometry">
            <mxRectangle x="-740" y="190" width="100" height="30" as="alternateBounds" />
          </mxGeometry>
        </mxCell>
        <mxCell id="Iei1TvvrwYdSUah-HN4D-92" value="title: string" style="text;strokeColor=none;fillColor=none;align=left;verticalAlign=middle;spacingLeft=4;spacingRight=4;overflow=hidden;points=[[0,0.5],[1,0.5]];portConstraint=eastwest;rotatable=0;whiteSpace=wrap;html=1;" vertex="1" parent="Iei1TvvrwYdSUah-HN4D-91">
          <mxGeometry y="30" width="250" height="30" as="geometry" />
        </mxCell>
        <mxCell id="Iei1TvvrwYdSUah-HN4D-101" value="description: string" style="text;strokeColor=none;fillColor=none;align=left;verticalAlign=middle;spacingLeft=4;spacingRight=4;overflow=hidden;points=[[0,0.5],[1,0.5]];portConstraint=eastwest;rotatable=0;whiteSpace=wrap;html=1;" vertex="1" parent="Iei1TvvrwYdSUah-HN4D-91">
          <mxGeometry y="60" width="250" height="30" as="geometry" />
        </mxCell>
        <mxCell id="Iei1TvvrwYdSUah-HN4D-102" value="unit: string" style="text;strokeColor=none;fillColor=none;align=left;verticalAlign=middle;spacingLeft=4;spacingRight=4;overflow=hidden;points=[[0,0.5],[1,0.5]];portConstraint=eastwest;rotatable=0;whiteSpace=wrap;html=1;" vertex="1" parent="Iei1TvvrwYdSUah-HN4D-91">
          <mxGeometry y="90" width="250" height="30" as="geometry" />
        </mxCell>
        <mxCell id="Iei1TvvrwYdSUah-HN4D-93" value="&lt;div style=&quot;text-align: center;&quot;&gt;&lt;span style=&quot;background-color: transparent; color: light-dark(rgb(0, 0, 0), rgb(255, 255, 255));&quot;&gt;stockQuantity: string&lt;/span&gt;&lt;/div&gt;" style="text;strokeColor=none;fillColor=none;align=left;verticalAlign=middle;spacingLeft=4;spacingRight=4;overflow=hidden;points=[[0,0.5],[1,0.5]];portConstraint=eastwest;rotatable=0;whiteSpace=wrap;html=1;" vertex="1" parent="Iei1TvvrwYdSUah-HN4D-91">
          <mxGeometry y="120" width="250" height="30" as="geometry" />
        </mxCell>
        <mxCell id="Iei1TvvrwYdSUah-HN4D-94" value="ArtikelListItem(Artikel art)" style="text;strokeColor=#313131;fillColor=none;align=left;verticalAlign=middle;spacingLeft=4;spacingRight=4;overflow=hidden;points=[[0,0.5],[1,0.5]];portConstraint=eastwest;rotatable=0;whiteSpace=wrap;html=1;" vertex="1" parent="Iei1TvvrwYdSUah-HN4D-91">
          <mxGeometry y="150" width="250" height="30" as="geometry" />
        </mxCell>
        <mxCell id="Iei1TvvrwYdSUah-HN4D-103" value="RelayCommand" style="swimlane;fontStyle=0;childLayout=stackLayout;horizontal=1;startSize=30;horizontalStack=0;resizeParent=1;resizeParentMax=0;resizeLast=0;collapsible=1;marginBottom=0;whiteSpace=wrap;html=1;" vertex="1" parent="1">
          <mxGeometry x="1590" y="190" width="250" height="180" as="geometry">
            <mxRectangle x="-740" y="190" width="100" height="30" as="alternateBounds" />
          </mxGeometry>
        </mxCell>
        <mxCell id="Iei1TvvrwYdSUah-HN4D-104" value="- _execute: Action&amp;lt;object&amp;gt;" style="text;strokeColor=none;fillColor=none;align=left;verticalAlign=middle;spacingLeft=4;spacingRight=4;overflow=hidden;points=[[0,0.5],[1,0.5]];portConstraint=eastwest;rotatable=0;whiteSpace=wrap;html=1;" vertex="1" parent="Iei1TvvrwYdSUah-HN4D-103">
          <mxGeometry y="30" width="250" height="30" as="geometry" />
        </mxCell>
        <mxCell id="Iei1TvvrwYdSUah-HN4D-105" value="- _canExecute: Func&amp;lt;object, bool&amp;gt;" style="text;strokeColor=none;fillColor=none;align=left;verticalAlign=middle;spacingLeft=4;spacingRight=4;overflow=hidden;points=[[0,0.5],[1,0.5]];portConstraint=eastwest;rotatable=0;whiteSpace=wrap;html=1;" vertex="1" parent="Iei1TvvrwYdSUah-HN4D-103">
          <mxGeometry y="60" width="250" height="30" as="geometry" />
        </mxCell>
        <mxCell id="Iei1TvvrwYdSUah-HN4D-108" value="RelayCommand(Action&amp;lt;object&amp;gt; execute, Func&amp;lt;object, bool&amp;gt; canExecute)" style="text;strokeColor=#313131;fillColor=none;align=left;verticalAlign=middle;spacingLeft=4;spacingRight=4;overflow=hidden;points=[[0,0.5],[1,0.5]];portConstraint=eastwest;rotatable=0;whiteSpace=wrap;html=1;" vertex="1" parent="Iei1TvvrwYdSUah-HN4D-103">
          <mxGeometry y="90" width="250" height="30" as="geometry" />
        </mxCell>
        <mxCell id="Iei1TvvrwYdSUah-HN4D-109" value="CanExecute(oject parameter)" style="text;strokeColor=#313131;fillColor=none;align=left;verticalAlign=middle;spacingLeft=4;spacingRight=4;overflow=hidden;points=[[0,0.5],[1,0.5]];portConstraint=eastwest;rotatable=0;whiteSpace=wrap;html=1;" vertex="1" parent="Iei1TvvrwYdSUah-HN4D-103">
          <mxGeometry y="120" width="250" height="30" as="geometry" />
        </mxCell>
        <mxCell id="Iei1TvvrwYdSUah-HN4D-110" value="Execute(object parameter)" style="text;strokeColor=#313131;fillColor=none;align=left;verticalAlign=middle;spacingLeft=4;spacingRight=4;overflow=hidden;points=[[0,0.5],[1,0.5]];portConstraint=eastwest;rotatable=0;whiteSpace=wrap;html=1;" vertex="1" parent="Iei1TvvrwYdSUah-HN4D-103">
          <mxGeometry y="150" width="250" height="30" as="geometry" />
        </mxCell>
        <mxCell id="Iei1TvvrwYdSUah-HN4D-151" style="edgeStyle=orthogonalEdgeStyle;rounded=0;orthogonalLoop=1;jettySize=auto;html=1;" edge="1" parent="1" source="Iei1TvvrwYdSUah-HN4D-111">
          <mxGeometry relative="1" as="geometry">
            <mxPoint x="1710" y="190" as="targetPoint" />
            <Array as="points">
              <mxPoint x="1995" y="160" />
              <mxPoint x="1710" y="160" />
            </Array>
          </mxGeometry>
        </mxCell>
        <mxCell id="Iei1TvvrwYdSUah-HN4D-111" value="ObservableObject" style="swimlane;fontStyle=0;childLayout=stackLayout;horizontal=1;startSize=30;horizontalStack=0;resizeParent=1;resizeParentMax=0;resizeLast=0;collapsible=1;marginBottom=0;whiteSpace=wrap;html=1;" vertex="1" parent="1">
          <mxGeometry x="1870" y="190" width="250" height="60" as="geometry">
            <mxRectangle x="-740" y="190" width="100" height="30" as="alternateBounds" />
          </mxGeometry>
        </mxCell>
        <mxCell id="Iei1TvvrwYdSUah-HN4D-114" value="OnPropertyChanged(string name)" style="text;strokeColor=#313131;fillColor=none;align=left;verticalAlign=middle;spacingLeft=4;spacingRight=4;overflow=hidden;points=[[0,0.5],[1,0.5]];portConstraint=eastwest;rotatable=0;whiteSpace=wrap;html=1;" vertex="1" parent="Iei1TvvrwYdSUah-HN4D-111">
          <mxGeometry y="30" width="250" height="30" as="geometry" />
        </mxCell>
        <mxCell id="Iei1TvvrwYdSUah-HN4D-117" value="InverseBooleanConverter" style="swimlane;fontStyle=0;childLayout=stackLayout;horizontal=1;startSize=30;horizontalStack=0;resizeParent=1;resizeParentMax=0;resizeLast=0;collapsible=1;marginBottom=0;whiteSpace=wrap;html=1;" vertex="1" parent="1">
          <mxGeometry x="2140" y="190" width="250" height="90" as="geometry">
            <mxRectangle x="-740" y="190" width="100" height="30" as="alternateBounds" />
          </mxGeometry>
        </mxCell>
        <mxCell id="Iei1TvvrwYdSUah-HN4D-118" value="Convert(object value, Type targetType, object parameter, CultureInfo culture)" style="text;strokeColor=#313131;fillColor=none;align=left;verticalAlign=middle;spacingLeft=4;spacingRight=4;overflow=hidden;points=[[0,0.5],[1,0.5]];portConstraint=eastwest;rotatable=0;whiteSpace=wrap;html=1;" vertex="1" parent="Iei1TvvrwYdSUah-HN4D-117">
          <mxGeometry y="30" width="250" height="30" as="geometry" />
        </mxCell>
        <mxCell id="Iei1TvvrwYdSUah-HN4D-119" value="ConvertBack(object value, Type targetType, object parameter, CultureInfo culture)" style="text;strokeColor=#313131;fillColor=none;align=left;verticalAlign=middle;spacingLeft=4;spacingRight=4;overflow=hidden;points=[[0,0.5],[1,0.5]];portConstraint=eastwest;rotatable=0;whiteSpace=wrap;html=1;" vertex="1" parent="Iei1TvvrwYdSUah-HN4D-117">
          <mxGeometry y="60" width="250" height="30" as="geometry" />
        </mxCell>
        <mxCell id="Iei1TvvrwYdSUah-HN4D-153" style="edgeStyle=orthogonalEdgeStyle;rounded=0;orthogonalLoop=1;jettySize=auto;html=1;" edge="1" parent="1" source="Iei1TvvrwYdSUah-HN4D-120">
          <mxGeometry relative="1" as="geometry">
            <mxPoint x="2810" y="190" as="targetPoint" />
            <Array as="points">
              <mxPoint x="2535" y="150" />
              <mxPoint x="2810" y="150" />
            </Array>
          </mxGeometry>
        </mxCell>
        <mxCell id="Iei1TvvrwYdSUah-HN4D-120" value="EnumToBoolConverter" style="swimlane;fontStyle=0;childLayout=stackLayout;horizontal=1;startSize=30;horizontalStack=0;resizeParent=1;resizeParentMax=0;resizeLast=0;collapsible=1;marginBottom=0;whiteSpace=wrap;html=1;" vertex="1" parent="1">
          <mxGeometry x="2410" y="190" width="250" height="90" as="geometry">
            <mxRectangle x="-740" y="190" width="100" height="30" as="alternateBounds" />
          </mxGeometry>
        </mxCell>
        <mxCell id="Iei1TvvrwYdSUah-HN4D-121" value="Convert(object value, Type targetType, object parameter, CultureInfo culture)" style="text;strokeColor=#313131;fillColor=none;align=left;verticalAlign=middle;spacingLeft=4;spacingRight=4;overflow=hidden;points=[[0,0.5],[1,0.5]];portConstraint=eastwest;rotatable=0;whiteSpace=wrap;html=1;" vertex="1" parent="Iei1TvvrwYdSUah-HN4D-120">
          <mxGeometry y="30" width="250" height="30" as="geometry" />
        </mxCell>
        <mxCell id="Iei1TvvrwYdSUah-HN4D-122" value="ConvertBack(object value, Type targetType, object parameter, CultureInfo culture)" style="text;strokeColor=#313131;fillColor=none;align=left;verticalAlign=middle;spacingLeft=4;spacingRight=4;overflow=hidden;points=[[0,0.5],[1,0.5]];portConstraint=eastwest;rotatable=0;whiteSpace=wrap;html=1;" vertex="1" parent="Iei1TvvrwYdSUah-HN4D-120">
          <mxGeometry y="60" width="250" height="30" as="geometry" />
        </mxCell>
        <mxCell id="Iei1TvvrwYdSUah-HN4D-143" style="edgeStyle=orthogonalEdgeStyle;rounded=0;orthogonalLoop=1;jettySize=auto;html=1;entryX=0.5;entryY=0;entryDx=0;entryDy=0;" edge="1" parent="1" source="Iei1TvvrwYdSUah-HN4D-123" target="Iei1TvvrwYdSUah-HN4D-103">
          <mxGeometry relative="1" as="geometry">
            <Array as="points">
              <mxPoint x="2815" y="60" />
              <mxPoint x="1715" y="60" />
            </Array>
          </mxGeometry>
        </mxCell>
        <mxCell id="Iei1TvvrwYdSUah-HN4D-123" value="MainViewModel" style="swimlane;fontStyle=0;childLayout=stackLayout;horizontal=1;startSize=30;horizontalStack=0;resizeParent=1;resizeParentMax=0;resizeLast=0;collapsible=1;marginBottom=0;whiteSpace=wrap;html=1;" vertex="1" parent="1">
          <mxGeometry x="2690" y="190" width="250" height="300" as="geometry">
            <mxRectangle x="-740" y="190" width="100" height="30" as="alternateBounds" />
          </mxGeometry>
        </mxCell>
        <mxCell id="Iei1TvvrwYdSUah-HN4D-124" value="HomeViewCommand: RelayCommand" style="text;strokeColor=none;fillColor=none;align=left;verticalAlign=middle;spacingLeft=4;spacingRight=4;overflow=hidden;points=[[0,0.5],[1,0.5]];portConstraint=eastwest;rotatable=0;whiteSpace=wrap;html=1;" vertex="1" parent="Iei1TvvrwYdSUah-HN4D-123">
          <mxGeometry y="30" width="250" height="30" as="geometry" />
        </mxCell>
        <mxCell id="Iei1TvvrwYdSUah-HN4D-125" value="HomeViewModel: HomeViewModel" style="text;strokeColor=none;fillColor=none;align=left;verticalAlign=middle;spacingLeft=4;spacingRight=4;overflow=hidden;points=[[0,0.5],[1,0.5]];portConstraint=eastwest;rotatable=0;whiteSpace=wrap;html=1;" vertex="1" parent="Iei1TvvrwYdSUah-HN4D-123">
          <mxGeometry y="60" width="250" height="30" as="geometry" />
        </mxCell>
        <mxCell id="Iei1TvvrwYdSUah-HN4D-129" value="ArikelViewCommand: RelayCommand" style="text;strokeColor=none;fillColor=none;align=left;verticalAlign=middle;spacingLeft=4;spacingRight=4;overflow=hidden;points=[[0,0.5],[1,0.5]];portConstraint=eastwest;rotatable=0;whiteSpace=wrap;html=1;" vertex="1" parent="Iei1TvvrwYdSUah-HN4D-123">
          <mxGeometry y="90" width="250" height="30" as="geometry" />
        </mxCell>
        <mxCell id="Iei1TvvrwYdSUah-HN4D-139" value="ArtikelViewModel: ArtikelViewModel" style="text;strokeColor=none;fillColor=none;align=left;verticalAlign=middle;spacingLeft=4;spacingRight=4;overflow=hidden;points=[[0,0.5],[1,0.5]];portConstraint=eastwest;rotatable=0;whiteSpace=wrap;html=1;" vertex="1" parent="Iei1TvvrwYdSUah-HN4D-123">
          <mxGeometry y="120" width="250" height="30" as="geometry" />
        </mxCell>
        <mxCell id="Iei1TvvrwYdSUah-HN4D-130" value="SettingsViewCommand: RelayCommand" style="text;strokeColor=none;fillColor=none;align=left;verticalAlign=middle;spacingLeft=4;spacingRight=4;overflow=hidden;points=[[0,0.5],[1,0.5]];portConstraint=eastwest;rotatable=0;whiteSpace=wrap;html=1;" vertex="1" parent="Iei1TvvrwYdSUah-HN4D-123">
          <mxGeometry y="150" width="250" height="30" as="geometry" />
        </mxCell>
        <mxCell id="Iei1TvvrwYdSUah-HN4D-140" value="SettingsViewModel: SettingsViewModel" style="text;strokeColor=none;fillColor=none;align=left;verticalAlign=middle;spacingLeft=4;spacingRight=4;overflow=hidden;points=[[0,0.5],[1,0.5]];portConstraint=eastwest;rotatable=0;whiteSpace=wrap;html=1;" vertex="1" parent="Iei1TvvrwYdSUah-HN4D-123">
          <mxGeometry y="180" width="250" height="30" as="geometry" />
        </mxCell>
        <mxCell id="Iei1TvvrwYdSUah-HN4D-141" value="- _currentView: object" style="text;strokeColor=none;fillColor=none;align=left;verticalAlign=middle;spacingLeft=4;spacingRight=4;overflow=hidden;points=[[0,0.5],[1,0.5]];portConstraint=eastwest;rotatable=0;whiteSpace=wrap;html=1;" vertex="1" parent="Iei1TvvrwYdSUah-HN4D-123">
          <mxGeometry y="210" width="250" height="30" as="geometry" />
        </mxCell>
        <mxCell id="Iei1TvvrwYdSUah-HN4D-142" value="CurrentView: object" style="text;strokeColor=none;fillColor=none;align=left;verticalAlign=middle;spacingLeft=4;spacingRight=4;overflow=hidden;points=[[0,0.5],[1,0.5]];portConstraint=eastwest;rotatable=0;whiteSpace=wrap;html=1;" vertex="1" parent="Iei1TvvrwYdSUah-HN4D-123">
          <mxGeometry y="240" width="250" height="30" as="geometry" />
        </mxCell>
        <mxCell id="Iei1TvvrwYdSUah-HN4D-127" value="MainViewModel()" style="text;strokeColor=#313131;fillColor=none;align=left;verticalAlign=middle;spacingLeft=4;spacingRight=4;overflow=hidden;points=[[0,0.5],[1,0.5]];portConstraint=eastwest;rotatable=0;whiteSpace=wrap;html=1;" vertex="1" parent="Iei1TvvrwYdSUah-HN4D-123">
          <mxGeometry y="270" width="250" height="30" as="geometry" />
        </mxCell>
        <mxCell id="Iei1TvvrwYdSUah-HN4D-146" style="edgeStyle=orthogonalEdgeStyle;rounded=0;orthogonalLoop=1;jettySize=auto;html=1;entryX=0.393;entryY=-0.003;entryDx=0;entryDy=0;entryPerimeter=0;" edge="1" parent="1" source="Iei1TvvrwYdSUah-HN4D-20" target="Iei1TvvrwYdSUah-HN4D-67">
          <mxGeometry relative="1" as="geometry">
            <Array as="points">
              <mxPoint x="275" y="160" />
              <mxPoint x="808" y="160" />
            </Array>
          </mxGeometry>
        </mxCell>
        <mxCell id="Iei1TvvrwYdSUah-HN4D-152" style="edgeStyle=orthogonalEdgeStyle;rounded=0;orthogonalLoop=1;jettySize=auto;html=1;" edge="1" parent="1">
          <mxGeometry relative="1" as="geometry">
            <mxPoint x="2260.0099999999998" y="190.00000000000006" as="sourcePoint" />
            <mxPoint x="2810" y="190" as="targetPoint" />
            <Array as="points">
              <mxPoint x="2260" y="150" />
              <mxPoint x="2810" y="150" />
            </Array>
          </mxGeometry>
        </mxCell>
      </root>
    </mxGraphModel>
  </diagram>
</mxfile>
